# xmcd
#
# Track frame offsets: 
#        150
#        15572
#        36965
#        51315
#        71660
#        91445
#        123255
#        142210
#        167412
#        182457
#        204672
#        227470
#        249370
#        272657
#
# Disc length: 3941 seconds
#
# Revision: 1
# Processed by: cddbd v1.5.2PL0 Copyright (c) Steve Scherf et al.
# Submitted via: ExactAudioCopy v0.99pb5
#
DISCID=be0f630e
DTITLE=Rockin' Johnny Band - Man's Temptation
DYEAR=1999
DGENRE=Blues
TTITLE0=Twist With Me Annine
TTITLE1=Man's Temptation
TTITLE2=My Heart Aches for You
TTITLE3=Down Here on the Ground
TTITLE4=Desperate
TTITLE5=Little Rain
TTITLE6=I'd Like to Have a Girl Like You
TTITLE7=Deal Me Some Love
TTITLE8=This Is Hip
TTITLE9=Midnight Special
TTITLE10=Twist It Baby
TTITLE11=Catfish Blues
TTITLE12=In the Groove
TTITLE13=Tomorrow Night
EXTD=YEAR: 1999
EXTT0=
EXTT1=
EXTT2=
EXTT3=
EXTT4=
EXTT5=
EXTT6=
EXTT7=
EXTT8=
EXTT9=
EXTT10=
EXTT11=
EXTT12=
EXTT13=
PLAYORDER=
